<?xml version="1.0" encoding="UTF-8"?>
<svg xmlns="http://www.w3.org/2000/svg" xmlns:xlink="http://www.w3.org/1999/xlink" viewBox="0 0 30 30" width="30px" height="30px">
<g id="surface154637084">
<path style=" stroke:none;fill-rule:nonzero;fill:rgb(9.411765%,34.117648%,32.549021%);fill-opacity:1;" d="M 25.566406 9.785156 C 25.441406 9.863281 22.515625 11.488281 22.515625 15.089844 C 22.652344 19.199219 26.210938 20.640625 26.269531 20.640625 C 26.210938 20.71875 25.734375 22.601562 24.324219 24.578125 C 23.203125 26.28125 21.960938 28 20.074219 28 C 18.28125 28 17.636719 26.863281 15.566406 26.863281 C 13.34375 26.863281 12.714844 28 11.015625 28 C 9.128906 28 7.792969 26.191406 6.613281 24.503906 C 5.082031 22.296875 3.777344 18.832031 3.730469 15.503906 C 3.699219 13.742188 4.039062 12.007812 4.898438 10.535156 C 6.109375 8.480469 8.269531 7.085938 10.632812 7.039062 C 12.441406 6.980469 14.050781 8.28125 15.152344 8.28125 C 16.210938 8.28125 18.191406 7.039062 20.429688 7.039062 C 21.394531 7.039062 23.96875 7.332031 25.566406 9.785156 Z M 15 6.6875 C 14.679688 5.078125 15.566406 3.46875 16.394531 2.441406 C 17.453125 1.199219 19.125 0.355469 20.566406 0.355469 C 20.65625 1.964844 20.074219 3.546875 19.03125 4.695312 C 18.097656 5.9375 16.488281 6.871094 15 6.6875 Z M 15 6.6875 "/>
</g>
</svg>
